<svg width="30" height="30" viewBox="0 0 30 30" fill="none" xmlns="http://www.w3.org/2000/svg">
<circle cx="15" cy="15" r="14.5" fill="white" stroke="#9B1E26"/>
<path d="M19.8839 12.9193C19.2571 12.1482 18.5406 11.5339 17.7541 11.0921C17.8829 10.9397 17.9846 10.761 18.0502 10.5618C18.3077 9.77752 17.9315 8.84588 16.9713 8.54238L18.3174 6.19517C18.4873 5.89895 18.3347 5.52165 18.0072 5.42645C17.0339 5.14347 16.0222 5 15 5C13.9778 5 12.9661 5.14347 11.9928 5.42645C11.6649 5.52175 11.513 5.8993 11.6826 6.19517L13.0287 8.54241C12.0723 8.84437 11.6913 9.77464 11.9499 10.5622C12.0154 10.7609 12.117 10.9395 12.2462 11.0919C11.4596 11.5337 10.743 12.1481 10.1162 12.9193C8.86316 14.4608 8.14453 16.4051 8.14453 18.2539C8.14453 22.0891 11.2048 23 15 23C18.7979 23 21.8555 22.0876 21.8555 18.2539C21.8555 16.4051 21.1368 14.4608 19.8839 12.9193ZM12.9432 6.27329C13.616 6.12806 14.3052 6.05469 15 6.05469C15.6948 6.05469 16.384 6.12806 17.0568 6.27329L15.8955 8.29836C15.3007 8.21532 14.6995 8.21536 14.1046 8.29839L12.9432 6.27329ZM13.2878 9.56666C14.1953 9.26895 15.1448 9.21253 16.0679 9.39706C16.069 9.39727 16.0701 9.39748 16.0712 9.3977C16.2864 9.44087 16.5001 9.49705 16.7115 9.56641C16.9879 9.6575 17.1389 9.95643 17.0483 10.2323C16.9825 10.4321 16.8086 10.5697 16.6041 10.592C16.0783 10.4274 15.542 10.3438 15 10.3438C14.4591 10.3438 13.9238 10.427 13.3991 10.591C13.1914 10.5696 13.0171 10.431 12.9518 10.2328C12.8611 9.95643 13.0121 9.65746 13.2878 9.56666ZM15 21.9523C10.8798 21.9523 9.19922 20.8759 9.19922 18.2539C9.19922 16.6669 9.84796 14.9213 10.9345 13.5845C12.0804 12.1748 13.5242 11.3984 15 11.3984C16.6244 11.3984 18.0453 12.3294 19.0655 13.5845C20.152 14.9213 20.8008 16.6669 20.8008 18.2539C20.8008 20.8759 19.1202 21.9523 15 21.9523Z" fill="#9B1E26"/>
<path d="M14.5965 20L13 17.3613V16.7395H13.5322C13.8455 16.7395 14.1086 16.6751 14.3215 16.5462C14.5344 16.4118 14.6704 16.2269 14.7295 15.9916H13V15.3697H14.7206C14.6674 15.1569 14.558 14.9804 14.3925 14.8403C14.2269 14.6947 13.9963 14.6218 13.7007 14.6218H13V14H17V14.6218H15.6075C15.8145 14.8347 15.9446 15.084 15.9978 15.3697H17V15.9916H16.0155C15.9564 16.4062 15.7879 16.7311 15.51 16.9664C15.2321 17.1961 14.8744 17.3529 14.4368 17.437L16.1752 20H14.5965Z" fill="#9B1E26"/>
</svg>
