<svg width="30" height="30" viewBox="0 0 30 30" fill="none" xmlns="http://www.w3.org/2000/svg">
<circle cx="15" cy="15" r="14.5" fill="white" stroke="#9B1E26"/>
<path d="M14.048 11.52C14.048 11.136 13.984 10.7733 13.856 10.432C13.728 10.08 13.5467 9.776 13.312 9.52C13.088 9.25333 12.816 9.04533 12.496 8.896C12.176 8.74667 11.8187 8.672 11.424 8.672C11.0293 8.672 10.6667 8.752 10.336 8.912C10.016 9.06133 9.73867 9.26933 9.504 9.536C9.26933 9.792 9.088 10.096 8.96 10.448C8.832 10.7893 8.768 11.1573 8.768 11.552C8.768 11.936 8.832 12.304 8.96 12.656C9.088 12.9973 9.264 13.3013 9.488 13.568C9.72267 13.824 10 14.0267 10.32 14.176C10.64 14.3253 10.9973 14.4 11.392 14.4C11.7867 14.4 12.144 14.3253 12.464 14.176C12.7947 14.016 13.0773 13.808 13.312 13.552C13.5467 13.2853 13.728 12.9813 13.856 12.64C13.984 12.288 14.048 11.9147 14.048 11.52ZM19.68 8.8H18.096L9.904 20H11.488L19.68 8.8ZM20.816 17.248C20.816 16.864 20.752 16.5013 20.624 16.16C20.496 15.808 20.3147 15.504 20.08 15.248C19.856 14.9813 19.584 14.7733 19.264 14.624C18.944 14.4747 18.5867 14.4 18.192 14.4C17.7973 14.4 17.4347 14.48 17.104 14.64C16.784 14.7893 16.5067 14.9973 16.272 15.264C16.0373 15.52 15.856 15.824 15.728 16.176C15.6 16.5173 15.536 16.8853 15.536 17.28C15.536 17.664 15.6 18.032 15.728 18.384C15.856 18.7253 16.032 19.0293 16.256 19.296C16.4907 19.552 16.768 19.7547 17.088 19.904C17.408 20.0533 17.7653 20.128 18.16 20.128C18.5547 20.128 18.912 20.0533 19.232 19.904C19.5627 19.744 19.8453 19.536 20.08 19.28C20.3147 19.0133 20.496 18.7093 20.624 18.368C20.752 18.016 20.816 17.6427 20.816 17.248ZM12.624 11.552C12.624 12 12.5173 12.384 12.304 12.704C12.0907 13.0133 11.7973 13.168 11.424 13.168C11.0613 13.168 10.7627 13.0133 10.528 12.704C10.304 12.384 10.192 11.9893 10.192 11.52C10.192 11.072 10.2987 10.6933 10.512 10.384C10.7253 10.064 11.0187 9.904 11.392 9.904C11.7547 9.904 12.048 10.064 12.272 10.384C12.5067 10.6933 12.624 11.0827 12.624 11.552ZM19.392 17.28C19.392 17.728 19.2853 18.112 19.072 18.432C18.8587 18.7413 18.5653 18.896 18.192 18.896C17.8293 18.896 17.5307 18.7413 17.296 18.432C17.072 18.112 16.96 17.7173 16.96 17.248C16.96 16.8 17.0667 16.4213 17.28 16.112C17.4933 15.792 17.7867 15.632 18.16 15.632C18.5227 15.632 18.816 15.792 19.04 16.112C19.2747 16.4213 19.392 16.8107 19.392 17.28Z" fill="#9B1E26"/>
</svg>
