<svg width="24" height="24" viewBox="0 0 24 24" fill="none" xmlns="http://www.w3.org/2000/svg">
<g clip-path="url(#clip0_6_1000)">
<path d="M13.2611 10.1687C13.6015 10.1687 13.8784 10.4006 13.8784 10.6856C13.8784 10.9444 14.0883 11.1543 14.3472 11.1543C14.606 11.1543 14.8159 10.9444 14.8159 10.6856C14.8159 10.0364 14.3588 9.48525 13.7298 9.29882V9.23366C13.7298 8.97481 13.5199 8.76489 13.2611 8.76489C13.0022 8.76489 12.7923 8.97481 12.7923 9.23366V9.29882C12.1634 9.48529 11.7063 10.0364 11.7063 10.6856C11.7063 11.4875 12.4037 12.14 13.2611 12.14C13.6015 12.14 13.8784 12.3719 13.8784 12.6569C13.8784 12.9419 13.6015 13.1737 13.2611 13.1737C12.9207 13.1737 12.6438 12.9419 12.6438 12.6569C12.6438 12.398 12.4339 12.1881 12.175 12.1881C11.9162 12.1881 11.7063 12.398 11.7063 12.6569C11.7063 13.3061 12.1634 13.8571 12.7923 14.0436V14.1087C12.7923 14.3676 13.0022 14.5775 13.2611 14.5775C13.5199 14.5775 13.7298 14.3676 13.7298 14.1087V14.0436C14.3588 13.8571 14.8159 13.3061 14.8159 12.6569C14.8159 11.8549 14.1184 11.2024 13.2611 11.2024C12.9207 11.2024 12.6438 10.9706 12.6438 10.6856C12.6438 10.4006 12.9207 10.1687 13.2611 10.1687Z" fill="#9B1E26"/>
<path d="M23.9295 15.6589C23.7456 15.0215 23.2284 14.54 22.5796 14.402C22.1642 14.3135 21.7321 14.3781 21.3631 14.5742C21.5767 13.2455 21.4645 11.871 21.0248 10.5898C20.9408 10.3449 20.6741 10.2148 20.4293 10.2986C20.1844 10.3826 20.054 10.6493 20.138 10.8941C20.6573 12.4072 20.6615 14.067 20.1528 15.5819L16.4172 18.8996C16.1867 19.1043 15.9339 19.2778 15.6653 19.4187C15.7412 19.1115 15.736 18.7861 15.6448 18.477C15.5008 17.9888 15.1549 17.5828 14.6958 17.3629L11.3866 15.7779C9.93975 15.0849 8.24638 15.0048 6.74061 15.5576L6.40423 15.6811C5.47054 13.0435 6.12044 10.1183 8.11991 8.11891L11.4293 4.80957H15.093L17.897 7.61358C18.0801 7.79659 18.3769 7.79659 18.56 7.61358C18.7431 7.43053 18.7431 7.13371 18.56 6.95061L15.8808 4.27157L16.8494 1.48438C16.9792 1.11073 16.8358 0.70309 16.5006 0.492989C16.1656 0.282935 15.7361 0.33164 15.4564 0.611212L15.4506 0.616978C15.2569 0.810812 14.9415 0.810812 14.7477 0.616978C13.925 -0.205659 12.5865 -0.205659 11.7637 0.616978C11.6699 0.710871 11.545 0.762529 11.4123 0.762529C11.2795 0.762529 11.1547 0.710824 11.0609 0.616978C10.7809 0.336984 10.3511 0.288513 10.0158 0.499224C9.68048 0.709887 9.53765 1.11809 9.66848 1.49188L10.6412 4.27185L7.45698 7.45603C6.27855 8.63451 5.4952 10.1203 5.19172 11.7528C4.92551 13.1844 5.04082 14.6442 5.52342 16.0046L4.78441 16.2759C4.5385 15.9562 4.15247 15.7496 3.7189 15.7496H1.34381C0.602833 15.7496 0 16.3525 0 17.0934V22.656C0 23.397 0.602833 23.9998 1.34381 23.9998H13.6988C15.6394 23.9998 17.4746 23.255 18.8662 21.9025L23.4563 17.4414C23.9319 16.9792 24.1132 16.2962 23.9295 15.6589ZM11.4122 1.70011C11.7954 1.70011 12.1557 1.5509 12.4266 1.27995C12.8838 0.822812 13.6276 0.822812 14.0848 1.27995C14.3557 1.5509 14.716 1.70011 15.0992 1.70011C15.3712 1.70011 15.6317 1.62492 15.8569 1.48429L15.0272 3.87209H11.4946L10.6603 1.48785C10.8842 1.62614 11.1425 1.70011 11.4122 1.70011ZM0.937531 22.6561V17.0934C0.937531 16.8694 1.11979 16.6871 1.34381 16.6871H3.71886C3.94288 16.6871 4.12514 16.8694 4.12514 17.0934V22.656C4.12514 22.8801 3.94288 23.0623 3.71886 23.0623H1.34381C1.11979 23.0624 0.937531 22.8801 0.937531 22.6561ZM22.8029 16.7692L18.2128 21.2302C16.9971 22.4117 15.394 23.0624 13.6988 23.0624H4.99971C5.0405 22.9341 5.06267 22.7977 5.06267 22.6561V17.1725L7.06374 16.4378C8.33348 15.9716 9.76158 16.0392 10.9816 16.6235L14.2909 18.2086C14.5141 18.3155 14.6756 18.5051 14.7456 18.7425C14.8156 18.9798 14.7829 19.2268 14.6535 19.4378C14.4456 19.7766 14.0356 19.9291 13.6568 19.8088L9.26042 18.4107C9.01375 18.3323 8.75012 18.4686 8.6716 18.7154C8.59318 18.9621 8.72954 19.2258 8.9763 19.3042L13.3727 20.7022C13.5537 20.7598 13.7381 20.7874 13.9201 20.7874C13.9421 20.7874 13.9639 20.7861 13.9858 20.7853C15.1132 20.7691 16.1953 20.3506 17.0396 19.6007L21.6385 15.5162C21.8409 15.3365 22.1199 15.2628 22.3845 15.3191C22.6987 15.3859 22.9395 15.6101 23.0285 15.9188C23.1176 16.2273 23.0333 16.5453 22.8029 16.7692Z" fill="#9B1E26"/>
<path d="M19.6289 9.32788C19.7522 9.32788 19.8731 9.27819 19.9603 9.19054C20.0475 9.10335 20.0977 8.98283 20.0977 8.85913C20.0977 8.73585 20.0475 8.61538 19.9603 8.52772C19.8731 8.44058 19.7522 8.39038 19.6289 8.39038C19.5056 8.39038 19.3852 8.44054 19.2975 8.52772C19.2103 8.61538 19.1602 8.73585 19.1602 8.85913C19.1602 8.98288 19.2103 9.10335 19.2975 9.19054C19.3847 9.27824 19.5056 9.32788 19.6289 9.32788Z" fill="#9B1E26"/>
</g>
<defs>
<clipPath id="clip0_6_1000">
<rect width="24" height="24" fill="white"/>
</clipPath>
</defs>
</svg>
