<svg width="24" height="24" viewBox="0 0 24 24" fill="none" xmlns="http://www.w3.org/2000/svg">
<g clip-path="url(#clip0_6_1006)">
<path d="M23.25 19.875H20.4375C20.7855 19.8746 21.1191 19.7362 21.3652 19.4902C21.6112 19.2441 21.7496 18.9105 21.75 18.5625V18.1875C21.7496 17.8395 21.6112 17.5059 21.3652 17.2598C21.1191 17.0138 20.7855 16.8754 20.4375 16.875H19.5258L18.5048 12.1753C18.4527 11.6162 18.1944 11.0966 17.7801 10.7175C17.3658 10.3385 16.8253 10.1273 16.2638 10.125H14.25V9.75C14.2499 9.70602 14.2421 9.6624 14.227 9.62109C14.5895 9.2402 14.8377 8.76512 14.9433 8.25H15C15.2982 8.2496 15.5842 8.13095 15.7951 7.92006C16.0059 7.70916 16.1246 7.42325 16.125 7.125V4.6875C16.1239 3.64356 15.7086 2.6427 14.9705 1.90453C14.2323 1.16635 13.2314 0.751141 12.1875 0.75H11.8125C10.7686 0.751141 9.7677 1.16635 9.02953 1.90453C8.29135 2.6427 7.87614 3.64356 7.875 4.6875V7.125C7.8754 7.42325 7.99405 7.70916 8.20494 7.92006C8.41584 8.13095 8.70175 8.2496 9 8.25H9.05672C9.16228 8.76512 9.41046 9.2402 9.77297 9.62109C9.75788 9.6624 9.75011 9.70602 9.75 9.75V10.125H7.73625C7.17475 10.1273 6.6342 10.3385 6.21992 10.7175C5.80563 11.0966 5.54727 11.6162 5.49516 12.1753L4.63734 16.125H4.3125C4.20744 16.1249 4.10275 16.1377 4.00078 16.163L2.96062 14.0822C2.91612 13.9932 2.83807 13.9255 2.74366 13.894C2.64925 13.8625 2.5462 13.8699 2.45719 13.9144C2.36817 13.9589 2.30049 14.0369 2.26902 14.1313C2.23755 14.2258 2.24487 14.3288 2.28938 14.4178L3.3525 16.5436C3.1259 16.7861 2.9999 17.1056 3 17.4375V18.5625C3.00038 18.9105 3.13879 19.2441 3.38485 19.4902C3.63091 19.7362 3.96452 19.8746 4.3125 19.875H0.75C0.650544 19.875 0.555161 19.9145 0.484835 19.9848C0.414509 20.0552 0.375 20.1505 0.375 20.25V21.75C0.375 21.8495 0.414509 21.9448 0.484835 22.0152C0.555161 22.0855 0.650544 22.125 0.75 22.125H1.125V22.875C1.125 22.9745 1.16451 23.0698 1.23483 23.1402C1.30516 23.2105 1.40054 23.25 1.5 23.25H22.5C22.5995 23.25 22.6948 23.2105 22.7652 23.1402C22.8355 23.0698 22.875 22.9745 22.875 22.875V22.125H23.25C23.3495 22.125 23.4448 22.0855 23.5152 22.0152C23.5855 21.9448 23.625 21.8495 23.625 21.75V20.25C23.625 20.1505 23.5855 20.0552 23.5152 19.9848C23.4448 19.9145 23.3495 19.875 23.25 19.875ZM19.3125 17.625H20.4375C20.5866 17.6251 20.7296 17.6844 20.8351 17.7899C20.9406 17.8954 20.9999 18.0384 21 18.1875V18.5625C20.9999 18.7116 20.9406 18.8546 20.8351 18.9601C20.7296 19.0656 20.5866 19.1249 20.4375 19.125H19.3125C19.1634 19.1249 19.0204 19.0656 18.9149 18.9601C18.8094 18.8546 18.7501 18.7116 18.75 18.5625V18.1875C18.7501 18.0384 18.8094 17.8954 18.9149 17.7899C19.0204 17.6844 19.1634 17.6251 19.3125 17.625ZM15.375 7.125C15.3749 7.22441 15.3353 7.31972 15.265 7.39001C15.1947 7.46031 15.0994 7.49986 15 7.5V6H15.375V7.125ZM9 7.5C8.90059 7.49986 8.80528 7.46031 8.73499 7.39001C8.66469 7.31972 8.62514 7.22441 8.625 7.125V6H9V7.5ZM8.625 5.25V4.6875C8.62588 3.84239 8.96199 3.03215 9.55957 2.43457C10.1572 1.83699 10.9674 1.50088 11.8125 1.5H12.1875C13.0326 1.50088 13.8428 1.83699 14.4404 2.43457C15.038 3.03215 15.3741 3.84239 15.375 4.6875V5.25H15V5.0625C15 4.99078 14.9972 4.91906 14.992 4.84922C14.9875 4.79056 14.9693 4.73379 14.9388 4.68348C14.9083 4.63318 14.8664 4.59075 14.8165 4.55963C14.7666 4.52851 14.71 4.50957 14.6515 4.50434C14.5929 4.49911 14.5339 4.50774 14.4792 4.52953C12.6923 5.24109 9.40781 5.25 9.375 5.25H8.625ZM9.75 7.6875V5.99437C10.5984 5.97328 12.6966 5.87344 14.25 5.40234V7.6875C14.2494 8.23431 14.0318 8.75854 13.6452 9.1452C13.2585 9.53185 12.7343 9.74936 12.1875 9.75H11.8125C11.2657 9.74936 10.7415 9.53185 10.3548 9.1452C9.96815 8.75854 9.75064 8.23431 9.75 7.6875ZM13.5 10.1737V10.5C13.5 11.1202 12.8273 11.625 12 11.625C11.1727 11.625 10.5 11.1202 10.5 10.5V10.1737C10.9041 10.3884 11.3549 10.5005 11.8125 10.5H12.1875C12.6451 10.5005 13.0959 10.3884 13.5 10.1737ZM6.23344 12.3108C6.23712 12.2939 6.23962 12.2769 6.24094 12.2597C6.27144 11.8835 6.44202 11.5325 6.71891 11.2761C6.99581 11.0197 7.35887 10.8766 7.73625 10.875H9.79547C10.0045 11.73 10.9134 12.375 12 12.375C13.0866 12.375 13.9955 11.73 14.2045 10.875H16.2638C16.6411 10.8766 17.0042 11.0197 17.2811 11.2761C17.558 11.5325 17.7286 11.8835 17.7591 12.2597C17.7604 12.2769 17.7629 12.2939 17.7666 12.3108L18.7828 16.987C18.5501 17.0899 18.3523 17.2581 18.2134 17.4712C18.0744 17.6843 18.0003 17.9331 18 18.1875V18.5625C18.0004 18.9105 18.1388 19.2441 18.3848 19.4902C18.6309 19.7362 18.9645 19.8746 19.3125 19.875H17.625V14.0625C17.6246 13.7145 17.4862 13.3809 17.2402 13.1348C16.9941 12.8888 16.6605 12.7504 16.3125 12.75H7.6875C7.33952 12.7504 7.00591 12.8888 6.75985 13.1348C6.51379 13.3809 6.37538 13.7145 6.375 14.0625V19.875H4.6875C5.03548 19.8746 5.36909 19.7362 5.61515 19.4902C5.86121 19.2441 5.99962 18.9105 6 18.5625V17.4375C5.99994 17.2112 5.94132 16.9887 5.82986 16.7918C5.7184 16.5948 5.55788 16.43 5.36391 16.3134L6.23344 12.3108ZM16.875 14.0625V19.875H7.125V14.0625C7.12512 13.9134 7.18443 13.7704 7.28989 13.6649C7.39535 13.5594 7.53835 13.5001 7.6875 13.5H16.3125C16.4616 13.5001 16.6046 13.5594 16.7101 13.6649C16.8156 13.7704 16.8749 13.9134 16.875 14.0625ZM3.75 18.5625V17.4375C3.75012 17.2884 3.80943 17.1454 3.91489 17.0399C4.02035 16.9344 4.16335 16.8751 4.3125 16.875H4.6875C4.83665 16.8751 4.97965 16.9344 5.08511 17.0399C5.19057 17.1454 5.24988 17.2884 5.25 17.4375V18.5625C5.24988 18.7116 5.19057 18.8546 5.08511 18.9601C4.97965 19.0656 4.83665 19.1249 4.6875 19.125H4.3125C4.16335 19.1249 4.02035 19.0656 3.91489 18.9601C3.80943 18.8546 3.75012 18.7116 3.75 18.5625ZM22.125 22.5H1.875V22.125H22.125V22.5ZM22.875 21.375H1.125V20.625H22.875V21.375Z" fill="#9B1E26"/>
<path d="M12 15.75C11.7033 15.75 11.4133 15.838 11.1666 16.0028C10.92 16.1676 10.7277 16.4019 10.6142 16.676C10.5006 16.9501 10.4709 17.2517 10.5288 17.5426C10.5867 17.8336 10.7296 18.1009 10.9393 18.3107C11.1491 18.5205 11.4164 18.6633 11.7074 18.7212C11.9983 18.7791 12.2999 18.7494 12.574 18.6358C12.8481 18.5223 13.0824 18.33 13.2472 18.0834C13.412 17.8367 13.5 17.5467 13.5 17.25C13.4996 16.8523 13.3414 16.471 13.0602 16.1898C12.779 15.9086 12.3977 15.7504 12 15.75ZM12 18C11.8517 18 11.7067 17.956 11.5833 17.8736C11.46 17.7912 11.3639 17.6741 11.3071 17.537C11.2503 17.4 11.2355 17.2492 11.2644 17.1037C11.2934 16.9582 11.3648 16.8246 11.4697 16.7197C11.5746 16.6148 11.7082 16.5434 11.8537 16.5144C11.9992 16.4855 12.15 16.5003 12.287 16.5571C12.4241 16.6139 12.5412 16.71 12.6236 16.8333C12.706 16.9567 12.75 17.1017 12.75 17.25C12.7498 17.4489 12.6707 17.6395 12.5301 17.7801C12.3895 17.9207 12.1989 17.9998 12 18Z" fill="#9B1E26"/>
<path d="M10.875 7.125C11.0821 7.125 11.25 6.95711 11.25 6.75C11.25 6.54289 11.0821 6.375 10.875 6.375C10.6679 6.375 10.5 6.54289 10.5 6.75C10.5 6.95711 10.6679 7.125 10.875 7.125Z" fill="#9B1E26"/>
<path d="M13.125 7.125C13.3321 7.125 13.5 6.95711 13.5 6.75C13.5 6.54289 13.3321 6.375 13.125 6.375C12.9179 6.375 12.75 6.54289 12.75 6.75C12.75 6.95711 12.9179 7.125 13.125 7.125Z" fill="#9B1E26"/>
<path d="M11.625 9H12.375C12.4745 9 12.5698 8.96049 12.6402 8.89017C12.7105 8.81984 12.75 8.72446 12.75 8.625C12.75 8.52554 12.7105 8.43016 12.6402 8.35983C12.5698 8.28951 12.4745 8.25 12.375 8.25H11.625C11.5255 8.25 11.4302 8.28951 11.3598 8.35983C11.2895 8.43016 11.25 8.52554 11.25 8.625C11.25 8.72446 11.2895 8.81984 11.3598 8.89017C11.4302 8.96049 11.5255 9 11.625 9Z" fill="#9B1E26"/>
</g>
<defs>
<clipPath id="clip0_6_1006">
<rect width="24" height="24" fill="white"/>
</clipPath>
</defs>
</svg>
